<?xml version="1.0" encoding="utf-8"?>
<!-- Generator: Adobe Illustrator 18.1.1, SVG Export Plug-In . SVG Version: 6.00 Build 0)  -->
<svg version="1.1" xmlns="http://www.w3.org/2000/svg" xmlns:xlink="http://www.w3.org/1999/xlink" x="0px" y="0px"
	 viewBox="0 0 750 750" enable-background="new 0 0 750 750" xml:space="preserve">
<g id="Quadrante_1">
	<path fill="#EEB553" d="M49.6,363.3c0,0-3-115.7,91-214.3l30,29.3c0,0-76,74-78.7,185H49.6z"/>
	<path fill="#EEB553" d="M178,171.6l-30.7-30c0,0,82-86.7,215.3-91.3v42C362.6,92.3,259.3,90.9,178,171.6z"/>
	<path fill="#EEB553" d="M107.3,363.3c0,0-0.7-95.7,74.7-173l46,44.7c0,0-55.3,60-54.7,128.3H107.3z"/>
	<path fill="#EEB553" d="M234,228.9l-45.3-46.7c0,0,71.3-72.7,174-74v66C362.6,174.3,298,169.6,234,228.9z"/>
	<path fill="#9CBAB7" d="M188.6,363.5c0,0,3-153.3,174-175.3v108c0,0-55.5,3.5-67,67L188.6,363.5z"/>
	<path fill="#9CBAB7" d="M311.1,363.8c0,0,8-44,51.5-51.5v24c0,0-24,8-25.8,27L311.1,363.8z"/>
</g>
<g id="Quadrante_2">
	<path fill="#9CBAB7" d="M386.6,51.5c0,0,115.8-3,214.5,91l-29.4,30c0,0-74.1-76-185.1-78.7V51.5z"/>
	<path fill="#9CBAB7" d="M578.5,179.7l30-30.7c0,0,86.7,82.3,91.3,215.3h-42C657.9,364.3,659.2,261.1,578.5,179.7z"/>
	<path fill="#9CBAB7" d="M386.6,109.2c0,0,95.8-0.7,173.1,74.7l-44.7,46c0,0-59.4-55.3-128.4-54.7V109.2z"/>
	<path fill="#9CBAB7" d="M521.2,235.7l46.7-45.4c0,0,72.7,71.9,74,173.9h-66C575.9,364.3,580.5,299.7,521.2,235.7z"/>
	<path fill="#EB6D4B" d="M386.6,190.4c0,0,153.2,2.9,175.2,173.9h-108c0,0-3.5-55.4-67-66.9L386.6,190.4z"/>
	<path fill="#EB6D4B" d="M386.4,312.9c0,0,44,8.4,51.5,51.4h-24c0,0-8-23.9-27-25.7L386.4,312.9z"/>
</g>
<g id="Quadrante_3">
	<path fill="#A5B052" d="M362.6,700.5c0,0-115.8,3-214.5-91l29.4-30c0,0,74.1,76,185.1,78.7V700.5z"/>
	<path fill="#A5B052" d="M170.7,572.1l-30,30.6c0,0-86.7-81.4-91.3-215.4h42C91.4,387.3,90,490.7,170.7,572.1z"/>
	<path fill="#A5B052" d="M362.6,642.8c0,0-95.8,0.7-173.1-74.7l44.7-46c0,0,59.4,55.3,128.4,54.7V642.8z"/>
	<path fill="#A5B052" d="M228,516.1l-46.7,45.3c0,0-72.7-71.1-74-174.1h66C173.4,387.3,168.7,452.1,228,516.1z"/>
	<path fill="#EEB553" d="M362.6,561.4c0,0-153.3-3.1-175.3-174.1h108c0,0,3.5,55.6,67,67.1L362.6,561.4z"/>
	<path fill="#EEB553" d="M362.9,438.9c0,0-44-7.6-51.5-51.6h24c0,0,8,24.1,27,25.8L362.9,438.9z"/>
</g>
<g id="Quadrante_4">
	<path fill="#EB6D4B" d="M699.7,387.3c0,0,3,115.9-91,214.5l-30-29.4c0,0,76-74.1,78.7-185.1H699.7z"/>
	<path fill="#EB6D4B" d="M571.4,579.3l30.6,30c0,0-81.4,86.7-215.4,91.3v-42C386.6,658.6,490,660,571.4,579.3z"/>
	<path fill="#EB6D4B" d="M642.1,387.3c0,0,0.7,95.9-74.7,173.2l-46-44.8c0,0,55.3-59.4,54.7-128.4H642.1z"/>
	<path fill="#EB6D4B" d="M515.4,522l45.3,46.7c0,0-71,72.7-174,74v-66C386.6,576.6,451.4,581.3,515.4,522z"/>
	<path fill="#A5B052" d="M560.7,387.4c0,0-3.1,153.2-174.1,175.2v-108c0,0,55.5-3.5,67-67L560.7,387.4z"/>
	<path fill="#A5B052" d="M438.2,387.1c0,0-7.6,44-51.6,51.5v-24c0,0,24-8,25.8-27L438.2,387.1z"/>
</g>
<g id="Circulo">
	<circle fill="#385965" cx="375.1" cy="375.2" r="42"/>
</g>
</svg>
